<?xml version="1.0" standalone="no"?>
<!DOCTYPE svg PUBLIC "-//W3C//DTD SVG 20010904//EN"
 "http://www.w3.org/TR/2001/REC-SVG-20010904/DTD/svg10.dtd">
<svg version="1.0" xmlns="http://www.w3.org/2000/svg"
 width="512.000000pt" height="512.000000pt" viewBox="0 0 512.000000 512.000000"
 preserveAspectRatio="xMidYMid meet">
<metadata>
Created by potrace 1.11, written by Peter Selinger 2001-2013
</metadata>
<g transform="translate(0.000000,512.000000) scale(0.100000,-0.100000)"
fill="#000000" stroke="none">
<path d="M1581 5103 c-46 -8 -115 -26 -155 -39 -39 -13 -76 -26 -82 -27 -6 -2
-23 -10 -37 -20 -15 -9 -29 -17 -32 -17 -14 0 -96 -63 -139 -106 -92 -91 -155
-207 -190 -346 -35 -137 -39 -192 -40 -538 l-1 -315 90 0 91 0 0 295 c1 316 5
391 30 497 57 250 235 402 516 440 29 4 579 8 1223 8 l1169 0 1 -619 0 -620
91 0 90 -1 0 710 -1 710 -1270 1 c-1079 2 -1283 0 -1354 -13z"/>
<path d="M1546 4021 c-1 -3 -2 -337 -2 -741 l1 -735 325 1 c268 0 337 4 395
17 212 51 303 167 303 384 0 206 -89 336 -255 374 -54 13 -60 20 -21 26 39 6
113 44 145 75 88 86 107 285 38 417 -45 87 -158 153 -305 177 -53 9 -620 13
-624 5z m554 -236 c93 -18 137 -82 127 -187 -10 -117 -58 -146 -242 -148 -66
-1 -128 -1 -137 -1 -16 1 -18 16 -18 170 l0 170 43 3 c61 4 186 0 227 -7z m76
-597 c37 -18 54 -35 72 -69 47 -91 29 -246 -35 -296 -46 -37 -158 -50 -360
-44 l-23 1 0 213 c0 118 3 216 6 219 3 3 70 5 148 3 128 -2 148 -5 192 -27z"/>
<path d="M2460 4026 c0 -1 20 -23 44 -48 138 -145 162 -413 51 -578 -19 -29
-35 -53 -35 -55 0 -2 18 -23 40 -47 75 -80 111 -182 115 -330 5 -159 -35 -276
-126 -373 l-48 -51 322 2 c338 2 386 5 482 29 122 32 195 90 244 195 24 50 26
66 26 185 0 120 -2 134 -27 187 -44 96 -115 152 -229 182 -30 8 -52 15 -49 16
3 1 18 4 34 6 38 7 115 47 147 78 70 66 98 216 64 342 -25 94 -75 153 -167
198 -116 57 -165 62 -548 63 -187 1 -340 0 -340 -1z m669 -246 c83 -22 116
-77 109 -181 -8 -114 -49 -141 -228 -149 -188 -8 -168 -28 -168 170 l1 169 36
3 c65 5 212 -1 250 -12z m54 -589 c76 -37 108 -103 102 -214 -9 -157 -65 -196
-285 -198 -63 0 -125 0 -137 0 -21 1 -21 2 -21 220 l0 218 148 -2 c129 -2 153
-4 193 -24z"/>
<path d="M889 3557 c-247 -70 -363 -361 -232 -584 35 -59 124 -138 180 -159
27 -9 52 -21 58 -26 6 -6 10 -344 10 -970 l0 -961 -25 -10 c-120 -47 -196
-115 -244 -216 -27 -58 -31 -76 -31 -156 0 -125 28 -197 110 -280 33 -33 71
-65 85 -72 90 -40 109 -46 178 -48 199 -6 362 122 403 317 37 170 -59 359
-220 434 -70 32 -69 28 -19 151 90 219 271 377 503 439 65 17 127 18 890 20
750 1 923 5 995 19 101 20 137 29 191 50 243 96 385 262 449 528 29 119 34
191 35 489 0 148 4 268 8 268 5 0 37 14 72 31 82 39 164 126 196 206 19 46 23
77 23 153 0 86 -2 101 -31 160 -41 83 -109 152 -192 193 -61 30 -73 32 -166
32 -93 0 -105 -2 -167 -33 -83 -41 -149 -107 -191 -191 -30 -61 -32 -73 -32
-166 0 -92 3 -105 33 -166 39 -81 129 -169 199 -195 26 -9 53 -21 58 -25 14
-10 11 -543 -4 -635 -14 -89 -43 -182 -78 -247 -30 -54 -131 -167 -150 -167
-6 0 -13 -3 -15 -7 -5 -13 -64 -43 -125 -64 -132 -46 -197 -49 -1062 -49 -449
0 -827 -2 -841 -4 -14 -3 -47 -7 -73 -11 -102 -12 -255 -74 -363 -146 -27 -18
-86 -70 -132 -116 -46 -46 -84 -83 -85 -83 -8 0 1 1522 9 1528 5 5 30 16 55
26 26 9 58 26 70 37 13 12 31 26 40 33 36 26 90 111 109 172 59 193 -25 386
-208 476 -53 26 -78 32 -145 35 -47 1 -102 -3 -128 -10z m219 -204 c54 -32
102 -113 102 -171 0 -82 -47 -159 -122 -199 -53 -28 -144 -23 -201 10 -101 60
-134 192 -71 294 61 101 188 130 292 66z m3102 12 c80 -41 126 -125 115 -210
-13 -109 -97 -186 -204 -190 -162 -7 -266 161 -195 311 17 35 69 81 114 101
36 16 129 9 170 -12z m-3095 -2719 c50 -33 95 -116 95 -175 0 -89 -68 -181
-152 -206 -84 -25 -161 -2 -222 65 -111 123 -40 319 126 349 46 8 111 -6 153
-33z"/>
<path d="M4110 1551 c-130 -133 -257 -204 -441 -250 -176 -43 -188 -44 -1104
-46 -933 -3 -883 1 -1010 -71 -70 -39 -120 -81 -169 -144 -37 -46 -49 -74 -20
-45 54 53 212 137 287 150 l37 7 0 -181 0 -182 -137 1 c-147 2 -148 1 -115
-48 9 -14 27 -48 39 -76 l21 -51 96 -3 96 -3 0 -299 c0 -165 3 -300 8 -300 4
0 15 8 23 18 9 9 84 84 168 166 l153 148 31 -28 c40 -37 100 -95 225 -218
l101 -100 -2 305 -2 305 385 0 c345 1 530 7 550 19 4 2 20 6 36 9 101 18 274
96 384 174 130 91 270 254 342 397 38 73 84 211 96 285 15 86 24 160 20 159
-2 -1 -46 -45 -98 -98z m-230 -312 c-131 -116 -303 -182 -487 -188 -40 -1
-199 -3 -355 -4 l-283 -2 0 -42 c-1 -23 4 -44 10 -46 20 -6 642 0 700 7 81 10
207 41 246 61 47 25 26 1 -49 -56 -129 -98 -306 -165 -462 -175 -41 -3 -238
-6 -438 -7 l-362 -2 0 90 0 90 105 -2 105 -2 0 45 c0 28 -5 44 -12 45 -7 1
-55 1 -105 1 l-93 0 0 39 c0 22 0 42 0 47 0 4 242 8 538 8 295 1 548 4 562 8
33 8 67 14 110 20 73 11 262 75 284 97 5 5 12 6 15 3 3 -2 -10 -19 -29 -35z"/>
</g>
</svg>
