<?xml version="1.0" standalone="no"?>
<!DOCTYPE svg PUBLIC "-//W3C//DTD SVG 20010904//EN"
 "http://www.w3.org/TR/2001/REC-SVG-20010904/DTD/svg10.dtd">
<svg version="1.0" xmlns="http://www.w3.org/2000/svg"
 width="1352.000000pt" height="1352.000000pt" viewBox="0 0 1352.000000 1352.000000"
 preserveAspectRatio="xMidYMid meet">
<metadata>
Created by potrace 1.11, written by Peter Selinger 2001-2013
</metadata>
<g transform="translate(0.000000,1352.000000) scale(0.100000,-0.100000)"
fill="#000000" stroke="none">
<path d="M4838 9385 c-2 -1 -70 -6 -153 -9 -82 -4 -168 -8 -190 -10 -22 -2
-80 -7 -130 -10 -49 -4 -106 -8 -125 -11 -19 -2 -69 -7 -110 -11 -41 -3 -82
-8 -90 -9 -8 -2 -49 -6 -90 -10 -41 -3 -82 -8 -90 -10 -8 -2 -40 -7 -70 -10
-30 -3 -66 -8 -80 -10 -14 -2 -45 -7 -70 -10 -25 -4 -56 -8 -70 -10 -14 -2
-88 -14 -165 -25 -77 -12 -196 -32 -265 -45 -69 -13 -137 -26 -152 -29 -41 -7
-47 -13 -75 -72 -14 -30 -31 -58 -37 -61 -6 -4 -48 -8 -92 -9 -156 -2 -194
-44 -218 -244 -2 -19 -9 -62 -15 -95 -5 -33 -13 -78 -16 -100 -3 -23 -7 -50
-9 -60 -4 -22 -12 -77 -21 -140 -3 -22 -7 -47 -10 -55 -2 -8 -7 -37 -10 -65
-3 -27 -12 -88 -20 -135 -8 -47 -17 -103 -20 -125 -3 -23 -7 -50 -9 -60 -2
-11 -7 -42 -10 -70 -4 -27 -9 -57 -11 -65 -2 -8 -7 -37 -10 -65 -4 -27 -9 -59
-10 -70 -22 -138 -35 -227 -40 -260 -3 -22 -10 -65 -15 -95 -5 -30 -12 -73
-15 -95 -2 -22 -7 -51 -9 -65 -3 -14 -7 -43 -11 -65 -3 -22 -10 -65 -15 -95
-5 -30 -12 -75 -15 -100 -3 -25 -10 -70 -15 -100 -5 -30 -12 -73 -15 -95 -2
-22 -7 -49 -9 -60 -2 -11 -7 -42 -10 -70 -4 -27 -9 -57 -11 -65 -2 -8 -6 -35
-9 -60 -4 -25 -8 -56 -10 -70 -3 -14 -7 -43 -10 -65 -4 -22 -8 -51 -11 -65 -3
-14 -7 -41 -9 -60 -5 -42 -12 -88 -31 -200 -7 -47 -16 -105 -20 -130 -3 -25
-8 -56 -10 -70 -5 -29 -11 -68 -20 -125 -3 -23 -7 -50 -9 -61 -2 -12 -7 -45
-11 -75 -4 -30 -10 -72 -15 -94 -5 -22 -12 -65 -15 -95 -3 -30 -10 -77 -15
-105 -12 -65 -19 -108 -35 -228 -3 -23 -8 -53 -11 -67 -2 -14 -6 -38 -9 -55
-13 -95 -26 -182 -30 -195 -2 -8 -7 -39 -10 -69 -4 -30 -8 -61 -10 -70 -5 -29
-18 -135 -20 -161 -2 -52 29 -109 66 -119 26 -7 159 -6 159 2 0 12 28 8 33 -5
4 -10 6 -10 6 0 1 6 10 12 22 12 11 0 17 -4 14 -10 -3 -5 -2 -10 4 -10 5 0 11
4 13 9 5 14 63 18 63 4 0 -6 3 -15 7 -19 4 -3 6 3 3 15 -5 26 24 29 61 5 13
-9 27 -14 30 -11 3 3 -4 8 -15 12 -36 11 -23 20 27 20 26 0 58 2 72 6 15 3 35
0 50 -10 23 -14 24 -14 12 1 -11 14 -9 16 13 14 14 0 25 -5 25 -11 0 -5 4 -4
8 2 5 9 43 14 115 15 63 2 107 7 107 13 0 6 7 1 15 -9 15 -20 15 -20 15 0 0
16 2 17 10 4 5 -8 10 -10 10 -5 0 6 35 11 81 13 70 2 80 0 75 -13 -3 -9 -2
-13 4 -10 6 3 10 14 10 23 0 15 2 15 10 2 5 -8 10 -10 10 -5 0 6 37 10 95 10
57 0 95 4 95 10 0 6 4 4 9 -4 6 -8 14 -10 22 -5 20 12 59 13 59 1 0 -5 7 -4
16 4 13 10 17 10 24 0 4 -8 10 -9 13 -4 4 5 25 9 49 9 35 -1 42 -5 40 -19 -2
-9 2 -17 7 -17 5 0 8 9 6 20 -3 18 2 19 80 18 59 0 83 -4 78 -12 -3 -6 0 -5 8
2 17 16 42 16 34 0 -4 -7 0 -5 8 5 11 14 16 15 20 5 4 -10 6 -10 6 0 1 9 6 10
20 2 14 -7 21 -6 24 3 3 7 6 5 6 -5 1 -10 6 -18 12 -18 5 0 7 5 3 12 -5 7 -2
9 9 5 9 -3 18 -1 21 6 4 7 4 2 2 -10 -2 -12 3 -30 11 -40 14 -17 14 -17 5 1
-5 10 -7 27 -5 37 4 15 9 16 24 8 14 -7 19 -6 19 3 0 9 3 9 10 -2 6 -9 10 -11
10 -3 0 9 7 10 22 4 13 -4 35 -5 50 0 19 5 28 4 28 -4 0 -8 3 -7 9 2 10 16 20
3 16 -21 -2 -10 1 -18 6 -18 6 0 9 6 8 13 -3 28 2 33 35 29 27 -3 33 -8 30
-21 -3 -9 1 -5 9 8 11 18 16 20 20 10 3 -9 6 -10 6 -2 1 9 8 10 28 2 19 -7 28
-6 33 2 6 8 9 7 13 -2 4 -11 6 -11 6 -1 1 7 6 10 11 7 6 -3 95 -7 200 -7 147
-1 190 -4 194 -15 3 -7 11 -13 18 -13 10 0 10 2 -1 9 -10 7 -10 10 -1 16 7 4
16 2 20 -6 7 -10 12 -10 23 -1 7 7 17 9 20 6 3 -4 49 -7 102 -7 52 -1 95 -5
95 -10 0 -5 -8 -6 -17 -2 -13 4 -15 3 -7 -5 11 -11 44 -4 44 10 0 4 11 5 25 2
24 -4 24 -5 8 -19 -17 -13 -16 -13 4 -4 12 6 23 16 26 23 3 8 9 3 15 -12 8
-18 11 -20 11 -7 1 14 9 17 44 15 23 -2 47 -10 54 -18 6 -8 15 -12 19 -7 4 4
2 7 -5 7 -7 0 -9 5 -6 10 4 6 11 8 16 5 5 -4 35 -7 67 -9 32 -1 63 -6 70 -10
7 -4 12 -2 12 6 0 9 3 9 10 -2 7 -11 10 -11 10 -2 0 7 4 11 8 8 7 -4 64 -10
219 -20 18 -1 36 -6 40 -11 5 -4 2 -5 -6 0 -10 6 -12 4 -6 -5 6 -10 11 -10 20
3 7 9 14 15 17 12 2 -2 29 -6 59 -9 29 -2 54 -5 54 -6 0 -1 21 -3 47 -3 25 -1
50 -6 54 -10 5 -4 0 -5 -11 -2 -16 6 -17 5 -5 -4 10 -7 19 -6 30 4 14 12 20
12 43 0 16 -8 25 -10 21 -3 -5 8 -1 9 12 4 10 -4 46 -9 79 -11 84 -5 167 -15
177 -21 5 -4 26 -6 46 -6 20 0 42 -4 49 -10 7 -5 21 -7 32 -3 10 3 22 1 25 -4
4 -6 13 -8 21 -4 10 3 15 -1 15 -12 0 -10 -5 -13 -12 -9 -7 4 -8 3 -4 -4 4 -6
13 -9 21 -6 8 4 12 10 9 15 -3 5 2 9 11 9 12 0 14 -4 5 -19 -5 -11 -10 -23
-10 -28 1 -4 8 5 16 21 12 21 18 25 24 15 5 -8 2 -18 -8 -26 -15 -12 -14 -13
6 -3 13 6 20 16 16 22 -5 8 -1 9 12 4 10 -5 36 -9 57 -9 37 -2 48 -11 25 -20
-10 -4 -10 -6 -1 -6 6 -1 15 4 18 9 3 6 17 10 31 10 18 0 23 -4 18 -12 -6 -10
-5 -10 7 -1 16 13 36 12 58 -1 9 -6 12 -5 7 2 -7 12 32 11 52 -2 7 -4 12 -2
12 4 0 6 5 8 10 5 6 -4 8 -10 5 -15 -3 -5 0 -12 6 -16 8 -4 9 -3 5 4 -4 8 0
12 11 12 15 0 16 2 3 10 -8 5 -10 10 -4 10 5 0 16 -6 23 -12 11 -11 12 -10 6
0 -5 9 -1 12 11 10 11 -2 22 -10 26 -18 5 -12 7 -12 7 3 1 22 18 22 24 -1 4
-16 5 -16 6 1 1 11 10 17 29 18 15 0 39 3 55 5 15 3 27 0 27 -6 0 -6 -6 -8
-12 -5 -7 4 -5 0 4 -8 10 -8 14 -18 10 -22 -4 -5 -2 -5 4 -2 6 4 9 18 6 32 -3
20 0 25 17 25 15 0 20 -4 16 -12 -4 -7 0 -5 8 4 11 14 16 15 27 5 9 -8 11 -8
6 0 -6 11 50 27 99 28 11 0 25 3 30 6 21 13 125 21 125 9 0 -6 -5 -8 -12 -4
-7 5 -8 3 -3 -6 6 -10 12 -8 24 7 10 13 30 20 55 22 22 1 44 5 49 8 6 4 7 1 2
-8 -8 -12 -6 -12 8 0 9 7 25 11 36 8 10 -2 26 0 35 5 11 6 16 5 16 -4 0 -10 2
-10 8 -1 9 14 102 20 122 8 9 -5 11 -4 6 3 -4 7 -1 12 8 12 10 0 13 -6 9 -17
-5 -16 -4 -16 9 1 11 14 31 19 79 22 35 2 70 6 77 9 15 5 16 -7 1 -22 -8 -8
-8 -13 0 -18 6 -3 11 -3 10 2 -3 20 2 27 12 13 8 -12 9 -11 5 5 -5 18 -1 21
42 23 26 1 58 3 72 5 14 1 31 -4 38 -13 10 -13 11 -12 5 5 -6 18 -5 19 12 5
10 -8 16 -10 12 -4 -5 8 6 13 32 16 22 2 37 0 35 -4 -3 -5 0 -8 5 -8 6 0 11 6
11 13 0 8 4 7 10 -3 6 -10 10 -11 10 -2 0 6 7 12 15 12 8 0 15 -5 15 -11 0 -5
-5 -7 -12 -3 -7 5 -8 3 -3 -6 6 -10 11 -9 21 5 7 10 20 15 28 12 8 -3 28 -2
45 3 21 6 31 5 35 -3 3 -8 8 -7 15 3 10 13 12 13 21 0 9 -13 10 -13 10 0 0 12
2 13 9 1 7 -11 9 -11 14 0 4 10 6 10 6 2 1 -7 6 -13 12 -13 5 0 7 5 4 10 -11
18 37 11 52 -7 7 -10 13 -13 12 -8 -4 32 1 38 19 22 22 -20 32 -21 32 -4 0 9
28 13 103 15 56 1 133 3 170 5 69 2 89 -5 68 -26 -6 -6 -11 -16 -11 -21 0 -6
7 0 16 12 8 12 13 26 9 31 -3 6 4 9 15 8 18 -1 24 -10 21 -29 0 -5 4 -8 10 -8
6 0 8 9 4 20 -6 19 -2 20 63 20 68 0 70 -1 68 -24 -2 -17 1 -23 11 -19 10 4
11 9 2 19 -16 19 8 27 71 22 29 -2 50 1 50 7 0 6 5 3 10 -5 6 -9 10 -11 10 -3
0 9 7 10 22 4 13 -4 35 -5 50 0 18 5 29 3 32 -4 3 -8 5 -8 5 1 1 10 6 10 21 2
11 -6 20 -7 20 -1 0 5 14 6 35 1 24 -5 35 -4 35 4 0 6 5 4 10 -4 6 -10 10 -11
10 -3 0 9 7 10 25 3 18 -7 25 -6 25 3 0 8 4 7 10 -3 7 -11 10 -11 10 -2 0 9 5
10 19 2 14 -7 21 -6 24 3 3 7 6 5 6 -5 1 -10 6 -18 12 -18 5 0 7 5 3 12 -5 8
-2 9 9 5 10 -4 17 -1 17 6 0 8 4 6 10 -3 5 -8 10 -10 10 -5 0 16 53 12 68 -5
10 -11 12 -12 6 -1 -5 11 -3 13 9 8 10 -3 17 -3 17 1 0 11 93 1 109 -12 12 -8
13 -8 7 2 -5 9 12 12 74 12 59 0 79 -3 74 -12 -5 -7 -3 -8 7 -2 21 13 69 13
69 0 0 -7 3 -7 8 -1 8 11 94 16 87 5 -2 -4 27 -5 65 -3 l69 3 -5 -27 c-3 -15
-2 -25 1 -21 4 3 8 14 10 25 2 10 4 20 4 22 1 2 9 -3 18 -10 12 -10 15 -11 9
-1 -6 9 -2 11 16 7 12 -3 76 -6 140 -8 89 -1 118 -5 118 -15 0 -8 -5 -10 -12
-6 -7 4 -9 3 -5 -1 13 -15 36 -14 30 1 -3 8 0 14 6 14 6 0 11 -6 11 -12 0 -8
3 -9 8 -3 11 15 56 20 47 5 -5 -9 -2 -10 11 -3 11 5 26 8 34 7 8 -1 39 -2 68
-3 40 -1 51 -4 46 -13 -5 -8 0 -7 11 2 10 8 21 13 24 12 32 -19 41 -22 41 -12
0 6 5 8 11 5 6 -4 47 -9 92 -11 90 -5 145 -11 158 -20 5 -3 9 1 9 8 0 8 3 9 8
3 4 -5 25 -11 47 -12 95 -5 104 -7 98 -16 -4 -6 -1 -7 8 -1 23 14 49 15 49 1
0 -8 4 -7 10 3 8 13 10 13 10 1 0 -11 4 -10 13 4 9 11 19 15 27 10 8 -5 11 -4
6 3 -3 6 3 17 14 25 18 12 19 23 16 113 -2 54 -6 108 -9 119 -3 11 -8 40 -11
65 -3 25 -8 56 -10 70 -3 14 -10 61 -16 105 -7 44 -13 87 -15 95 -3 15 -13 81
-20 130 -2 14 -18 115 -35 225 -17 110 -33 216 -36 235 -2 19 -13 89 -23 155
-11 66 -22 140 -25 165 -3 25 -10 70 -16 100 -5 30 -12 73 -15 95 -3 23 -7 50
-9 60 -2 11 -7 42 -10 68 -4 27 -9 56 -10 65 -2 10 -7 40 -10 67 -11 75 -16
108 -21 125 -2 8 -7 38 -10 66 -3 28 -8 61 -10 74 -3 13 -7 42 -10 65 -4 22
-13 81 -20 130 -8 50 -17 108 -20 130 -3 22 -8 50 -10 62 -3 12 -7 41 -10 65
-3 24 -14 97 -25 163 -10 66 -22 143 -26 170 -3 28 -8 59 -10 70 -7 33 -25
148 -29 178 -9 66 -17 118 -30 202 -8 50 -26 167 -41 260 -81 533 -76 502 -88
560 -3 17 -12 81 -22 150 -1 11 -5 34 -7 50 -3 17 -11 62 -17 101 -21 131 -63
164 -211 169 -49 1 -91 4 -92 6 -2 2 -16 30 -32 62 -16 32 -32 60 -36 63 -7 4
-80 19 -144 29 -16 3 -50 10 -75 15 -40 8 -87 16 -145 25 -44 6 -103 16 -155
25 -30 5 -77 12 -105 15 -27 3 -63 8 -80 11 -34 6 -56 9 -135 19 -30 3 -66 8
-80 10 -14 2 -52 7 -85 10 -33 3 -71 8 -85 10 -14 2 -59 6 -100 10 -41 4 -88
8 -105 10 -16 2 -66 6 -110 10 -44 3 -100 8 -125 10 -317 26 -1016 26 -1153
-1 -12 -2 -47 -6 -77 -9 -247 -24 -570 -131 -728 -241 -35 -24 -67 -44 -72
-44 -5 0 -26 10 -46 22 -57 34 -158 35 -233 2 l-59 -26 -50 36 c-174 125 -497
228 -822 261 -30 3 -73 8 -95 11 -43 5 -691 14 -697 9z"/>
<path d="M3326 4323 c-8 -20 9 -40 19 -22 6 8 4 10 -5 4 -9 -5 -10 -2 -5 14 8
25 0 29 -9 4z"/>
<path d="M3500 4333 c0 -19 21 -27 33 -13 9 10 9 11 -2 5 -8 -4 -17 -2 -22 6
-6 9 -9 10 -9 2z"/>
<path d="M3957 4329 c7 -7 15 -10 18 -7 3 3 -2 9 -12 12 -14 6 -15 5 -6 -5z"/>
<path d="M4335 4319 c1 -10 5 -22 10 -26 4 -5 5 -2 1 5 -4 6 -2 12 3 12 15 0
14 17 -2 23 -9 3 -13 -2 -12 -14z"/>
<path d="M4390 4330 c0 -5 7 -7 15 -4 8 4 15 8 15 10 0 2 -7 4 -15 4 -8 0 -15
-4 -15 -10z"/>
<path d="M4434 4329 c-3 -6 -1 -16 6 -22 10 -9 11 -9 5 2 -4 8 -2 17 6 22 9 6
10 9 2 9 -6 0 -15 -5 -19 -11z"/>
<path d="M4475 4330 c-3 -5 -3 -10 2 -10 4 0 1 -5 -7 -11 -10 -7 -11 -9 -2 -7
8 2 13 7 12 12 -1 5 4 13 12 17 9 6 9 9 1 9 -6 0 -15 -4 -18 -10z"/>
<path d="M8908 4333 c6 -2 18 -2 25 0 6 3 1 5 -13 5 -14 0 -19 -2 -12 -5z"/>
<path d="M9051 4331 c-8 -5 -9 -11 -3 -15 5 -3 12 1 16 9 6 17 6 18 -13 6z"/>
<path d="M9236 4325 c3 -8 10 -13 14 -10 5 3 11 -1 13 -7 4 -10 6 -10 6 -1 1
7 -8 17 -19 23 -16 9 -18 8 -14 -5z"/>
<path d="M9333 4328 c-20 -26 -22 -35 -8 -35 8 0 12 4 9 9 -3 5 0 15 6 23 7 8
10 15 7 15 -2 0 -9 -6 -14 -12z"/>
<path d="M9617 4319 c4 -13 8 -18 11 -10 2 7 -1 18 -6 23 -8 8 -9 4 -5 -13z"/>
<path d="M9696 4328 c5 -8 2 -9 -9 -5 -24 9 -21 0 4 -14 13 -6 19 -7 15 -1 -3
6 -1 12 6 14 7 3 5 7 -6 11 -11 5 -15 3 -10 -5z"/>
<path d="M9747 4326 c-4 -10 -1 -13 8 -9 8 3 12 9 9 14 -7 12 -11 11 -17 -5z"/>
<path d="M9817 4321 c-3 -12 0 -24 5 -28 6 -3 8 -1 4 5 -3 5 -2 12 4 14 5 2 6
9 1 16 -6 10 -10 9 -14 -7z"/>
<path d="M9870 4330 c-9 -6 -10 -10 -3 -10 6 0 15 5 18 10 8 12 4 12 -15 0z"/>
<path d="M9971 4333 c-1 -17 16 -25 25 -12 4 7 3 9 -4 5 -5 -3 -13 0 -15 6 -4
9 -6 10 -6 1z"/>
<path d="M3130 4320 c-8 -5 -10 -10 -5 -10 6 0 17 5 25 10 8 5 11 10 5 10 -5
0 -17 -5 -25 -10z"/>
<path d="M3261 4314 c0 -11 3 -14 6 -6 3 7 2 16 -1 19 -3 4 -6 -2 -5 -13z"/>
<path d="M3396 4315 c-11 -8 -15 -15 -9 -15 6 0 16 7 23 15 16 19 11 19 -14 0z"/>
<path d="M3566 4322 c-3 -5 1 -9 9 -9 8 0 15 4 15 9 0 4 -4 8 -9 8 -6 0 -12
-4 -15 -8z"/>
<path d="M3635 4320 c-3 -5 -1 -10 4 -10 6 0 11 5 11 10 0 6 -2 10 -4 10 -3 0
-8 -4 -11 -10z"/>
<path d="M3680 4326 c0 -2 7 -7 16 -10 8 -3 12 -2 9 4 -6 10 -25 14 -25 6z"/>
<path d="M3906 4318 c3 -5 10 -6 15 -3 13 9 11 12 -6 12 -8 0 -12 -4 -9 -9z"/>
<path d="M4090 4320 c0 -5 5 -10 10 -10 6 0 10 5 10 10 0 6 -4 10 -10 10 -5 0
-10 -4 -10 -10z"/>
<path d="M4170 4320 c0 -5 5 -10 10 -10 6 0 10 5 10 10 0 6 -4 10 -10 10 -5 0
-10 -4 -10 -10z"/>
<path d="M4530 4320 c0 -5 5 -10 10 -10 6 0 10 5 10 10 0 6 -4 10 -10 10 -5 0
-10 -4 -10 -10z"/>
<path d="M4570 4320 c0 -5 5 -10 11 -10 5 0 7 5 4 10 -3 6 -8 10 -11 10 -2 0
-4 -4 -4 -10z"/>
<path d="M4756 4318 c3 -4 0 -8 -7 -8 -7 0 -10 -3 -6 -6 3 -3 16 1 28 9 22 16
22 16 1 14 -11 0 -18 -5 -16 -9z"/>
<path d="M8558 4318 c-9 -5 -6 -7 9 -5 12 2 25 6 28 8 8 9 -23 6 -37 -3z"/>
<path d="M8610 4318 c0 -4 4 -8 9 -8 6 0 12 4 15 8 3 5 -1 9 -9 9 -8 0 -15 -4
-15 -9z"/>
<path d="M8660 4320 c-7 -4 4 -7 24 -6 19 1 38 4 40 7 8 8 -51 7 -64 -1z"/>
<path d="M8746 4317 c3 -10 9 -15 12 -12 3 3 0 11 -7 18 -10 9 -11 8 -5 -6z"/>
<path d="M8887 4319 c7 -7 15 -10 18 -7 3 3 -2 9 -12 12 -14 6 -15 5 -6 -5z"/>
<path d="M8950 4320 c0 -5 7 -7 15 -4 8 4 15 8 15 10 0 2 -7 4 -15 4 -8 0 -15
-4 -15 -10z"/>
<path d="M9095 4320 c-3 -6 1 -7 9 -4 18 7 21 14 7 14 -6 0 -13 -4 -16 -10z"/>
<path d="M9140 4320 c18 -12 30 -13 30 -2 0 4 -10 9 -22 9 -18 2 -20 0 -8 -7z"/>
<path d="M9373 4323 c9 -8 57 -13 57 -6 0 5 -14 9 -31 9 -16 1 -28 0 -26 -3z"/>
<path d="M9550 4326 c0 -2 7 -7 16 -10 8 -3 12 -2 9 4 -6 10 -25 14 -25 6z"/>
<path d="M10030 4326 c0 -2 7 -7 16 -10 8 -3 12 -2 9 4 -6 10 -25 14 -25 6z"/>
<path d="M10075 4320 c-3 -5 -3 -10 2 -10 4 0 2 -4 -5 -9 -11 -7 -10 -9 3 -14
9 -4 14 -3 10 2 -3 5 1 12 7 14 10 4 10 6 0 6 -7 1 -10 6 -7 11 3 6 4 10 1 10
-3 0 -8 -4 -11 -10z"/>
<path d="M10186 4317 c3 -10 9 -15 12 -12 3 3 0 11 -7 18 -10 9 -11 8 -5 -6z"/>
<path d="M3181 4317 c2 -1 11 -8 21 -15 12 -10 18 -10 24 -1 4 8 3 9 -4 5 -7
-4 -12 -2 -12 3 0 6 -7 11 -17 11 -9 0 -14 -1 -12 -3z"/>
<path d="M3830 4310 c0 -5 6 -10 13 -11 6 -1 24 -2 39 -3 15 -2 25 1 23 5 -3
4 -13 6 -23 4 -9 -1 -25 2 -34 7 -12 5 -18 5 -18 -2z"/>
<path d="M3935 4309 c-4 -6 -5 -12 -2 -15 2 -3 7 2 10 11 7 17 1 20 -8 4z"/>
<path d="M4232 4311 c-11 -7 -11 -9 0 -14 9 -3 15 1 15 9 0 8 -1 14 -1 14 -1
0 -7 -4 -14 -9z"/>
<path d="M4714 4312 c3 -5 0 -13 -6 -15 -9 -4 -10 -6 -1 -6 17 -1 25 16 12 25
-7 4 -9 3 -5 -4z"/>
<path d="M5036 4303 c5 -22 -7 -25 -36 -9 -12 7 -13 6 -3 -4 18 -19 43 -21 50
-4 3 8 10 11 16 7 6 -3 7 -1 3 6 -4 6 -11 9 -16 6 -4 -3 -11 1 -14 7 -3 7 -3
3 0 -9z"/>
<path d="M9354 4309 c1 -7 10 -13 19 -15 9 -1 15 2 11 7 -3 5 -9 7 -14 4 -4
-3 -11 0 -13 5 -3 6 -4 5 -3 -1z"/>
<path d="M9908 4313 c7 -3 16 -2 19 1 4 3 -2 6 -13 5 -11 0 -14 -3 -6 -6z"/>
<path d="M10357 4309 c7 -7 15 -10 18 -7 3 3 -2 9 -12 12 -14 6 -15 5 -6 -5z"/>
<path d="M10430 4311 c0 -7 -5 -9 -12 -5 -7 5 -8 3 -3 -5 5 -9 10 -10 18 -2 6
6 8 14 4 18 -4 3 -7 1 -7 -6z"/>
<path d="M2693 4291 c0 -11 5 -18 9 -15 4 3 5 11 1 19 -7 21 -12 19 -10 -4z"/>
<path d="M2756 4295 c-9 -26 -7 -32 5 -12 6 10 9 21 6 23 -2 3 -7 -2 -11 -11z"/>
<path d="M2910 4300 c0 -5 5 -10 10 -10 6 0 10 5 10 10 0 6 -4 10 -10 10 -5 0
-10 -4 -10 -10z"/>
<path d="M3015 4301 c-3 -6 5 -15 17 -21 21 -10 21 -10 6 3 -10 8 -15 17 -11
20 3 4 4 7 0 7 -3 0 -8 -4 -12 -9z"/>
<path d="M3073 4303 c4 -3 1 -13 -6 -22 -11 -14 -10 -14 6 -2 20 15 22 31 5
31 -6 0 -8 -3 -5 -7z"/>
<path d="M3236 4293 c-6 -14 -5 -15 5 -6 7 7 10 15 7 18 -3 3 -9 -2 -12 -12z"/>
<path d="M3414 4298 c-4 -6 -3 -8 4 -4 5 3 12 1 14 -6 3 -8 6 -9 11 -1 4 6 0
13 -8 17 -8 3 -17 0 -21 -6z"/>
<path d="M3495 4300 c5 -9 1 -10 -16 -6 -21 6 -22 6 -6 -5 13 -7 22 -8 29 -1
6 6 6 12 -3 17 -8 6 -10 4 -4 -5z"/>
<path d="M3599 4293 c-12 -16 -12 -17 2 -6 9 7 20 9 24 5 5 -4 5 -1 1 6 -9 16
-11 15 -27 -5z"/>
<path d="M3653 4298 c-3 -6 -1 -8 5 -4 5 3 13 0 15 -6 4 -10 6 -10 6 0 1 8 6
10 14 6 6 -4 8 -3 4 1 -12 13 -36 15 -44 3z"/>
<path d="M3956 4302 c-3 -4 4 -9 15 -9 23 -2 25 3 4 10 -8 4 -16 3 -19 -1z"/>
<path d="M4027 4299 c7 -7 15 -10 18 -7 3 3 -2 9 -12 12 -14 6 -15 5 -6 -5z"/>
<path d="M4066 4302 c-3 -5 1 -9 9 -9 8 0 12 4 9 9 -3 4 -7 8 -9 8 -2 0 -6 -4
-9 -8z"/>
<path d="M4398 4303 c7 -3 16 -2 19 1 4 3 -2 6 -13 5 -11 0 -14 -3 -6 -6z"/>
<path d="M4494 4299 c-4 -7 -3 -9 4 -5 5 3 13 0 15 -6 4 -9 6 -10 6 -1 1 17
-16 25 -25 12z"/>
<path d="M4615 4300 c5 -9 1 -10 -16 -6 -21 6 -22 6 -6 -5 13 -7 22 -8 29 -1
6 6 6 12 -3 17 -8 6 -10 4 -4 -5z"/>
<path d="M4670 4301 c0 -6 4 -13 10 -16 6 -3 7 1 4 9 -7 18 -14 21 -14 7z"/>
<path d="M4774 4298 c-4 -7 -4 -10 1 -6 4 4 14 0 22 -10 13 -15 13 -15 3 6
-12 25 -16 27 -26 10z"/>
<path d="M5117 4299 c7 -7 15 -10 18 -7 3 3 -2 9 -12 12 -14 6 -15 5 -6 -5z"/>
<path d="M5156 4293 c-6 -14 -5 -15 5 -6 7 7 10 15 7 18 -3 3 -9 -2 -12 -12z"/>
<path d="M8510 4303 c0 -6 8 -17 18 -24 16 -13 16 -13 2 6 -8 11 -16 22 -17
24 -2 2 -3 0 -3 -6z"/>
<path d="M8815 4301 c-9 -15 13 -23 32 -11 15 9 14 10 -6 4 -16 -4 -21 -3 -17
5 4 6 5 11 2 11 -3 0 -7 -4 -11 -9z"/>
<path d="M8925 4299 c-4 -6 -4 -13 -1 -16 3 -4 6 -1 6 6 0 7 5 9 12 5 7 -4 8
-3 4 4 -9 15 -13 15 -21 1z"/>
<path d="M9106 4301 c-3 -4 6 -7 19 -7 14 0 22 2 19 5 -8 8 -34 10 -38 2z"/>
<path d="M9174 4299 c-4 -7 -3 -9 4 -5 5 3 13 0 15 -6 4 -9 6 -10 6 -1 1 17
-16 25 -25 12z"/>
<path d="M9436 4302 c-3 -5 1 -9 9 -9 8 0 12 4 9 9 -3 4 -7 8 -9 8 -2 0 -6 -4
-9 -8z"/>
<path d="M9480 4300 c-9 -6 -10 -10 -3 -10 6 0 15 5 18 10 8 12 4 12 -15 0z"/>
<path d="M9535 4300 c-3 -5 -1 -10 4 -10 6 0 11 5 11 10 0 6 -2 10 -4 10 -3 0
-8 -4 -11 -10z"/>
<path d="M9716 4293 c-6 -14 -5 -15 5 -6 7 7 10 15 7 18 -3 3 -9 -2 -12 -12z"/>
<path d="M9870 4301 c0 -6 4 -12 8 -15 5 -3 9 1 9 9 0 8 -4 15 -9 15 -4 0 -8
-4 -8 -9z"/>
<path d="M9956 4293 c-6 -14 -5 -15 5 -6 7 7 10 15 7 18 -3 3 -9 -2 -12 -12z"/>
<path d="M10030 4301 c0 -6 4 -13 10 -16 6 -3 7 1 4 9 -7 18 -14 21 -14 7z"/>
<path d="M10270 4300 c0 -5 5 -10 11 -10 5 0 7 5 4 10 -3 6 -8 10 -11 10 -2 0
-4 -4 -4 -10z"/>
<path d="M10314 4302 c-8 -5 -3 -14 15 -26 l26 -20 -20 24 c-18 21 -18 23 -2
17 11 -4 16 -3 12 3 -7 12 -16 12 -31 2z"/>
<path d="M10510 4301 c0 -6 4 -13 10 -16 6 -3 7 1 4 9 -7 18 -14 21 -14 7z"/>
<path d="M2782 4292 c2 -8 7 -13 12 -12 5 1 13 -4 18 -12 8 -11 9 -11 6 0 -2
8 -7 13 -12 12 -5 -1 -13 4 -18 12 -8 11 -9 11 -6 0z"/>
<path d="M3550 4290 c-8 -5 -10 -10 -5 -10 6 0 17 5 25 10 8 5 11 10 5 10 -5
0 -17 -5 -25 -10z"/>
<path d="M4550 4289 c0 -5 5 -7 10 -4 6 3 10 8 10 11 0 2 -4 4 -10 4 -5 0 -10
-5 -10 -11z"/>
<path d="M4651 4284 c0 -11 3 -14 6 -6 3 7 2 16 -1 19 -3 4 -6 -2 -5 -13z"/>
<path d="M4830 4285 c0 -8 2 -15 4 -15 2 0 6 7 10 15 3 8 1 15 -4 15 -6 0 -10
-7 -10 -15z"/>
<path d="M5180 4294 c0 -5 7 -18 15 -28 8 -11 15 -16 15 -10 0 5 -7 18 -15 28
-8 11 -15 16 -15 10z"/>
<path d="M5310 4291 c0 -6 4 -12 8 -15 5 -3 9 1 9 9 0 8 -4 15 -9 15 -4 0 -8
-4 -8 -9z"/>
<path d="M8030 4289 c0 -5 5 -7 10 -4 6 3 10 8 10 11 0 2 -4 4 -10 4 -5 0 -10
-5 -10 -11z"/>
<path d="M8282 4280 c7 -10 14 -18 15 -16 6 6 -9 36 -18 36 -5 0 -4 -9 3 -20z"/>
<path d="M8362 4280 c7 -10 14 -18 15 -16 6 6 -9 36 -18 36 -5 0 -4 -9 3 -20z"/>
<path d="M8490 4289 c0 -5 -4 -8 -9 -4 -5 3 -12 2 -15 -3 -2 -4 6 -8 19 -8 15
0 21 5 18 13 -6 16 -13 17 -13 2z"/>
<path d="M8590 4285 c0 -8 4 -15 8 -15 5 0 9 7 9 15 0 8 -4 15 -9 15 -4 0 -8
-7 -8 -15z"/>
<path d="M8675 4290 c3 -5 8 -10 11 -10 2 0 4 5 4 10 0 6 -5 10 -11 10 -5 0
-7 -4 -4 -10z"/>
<path d="M9588 4293 c7 -3 16 -2 19 1 4 3 -2 6 -13 5 -11 0 -14 -3 -6 -6z"/>
<path d="M9906 4288 c3 -4 11 -5 19 -1 21 7 19 12 -4 10 -11 0 -18 -5 -15 -9z"/>
<path d="M10006 4283 c-6 -14 -5 -15 5 -6 7 7 10 15 7 18 -3 3 -9 -2 -12 -12z"/>
<path d="M10250 4291 c0 -6 4 -13 10 -16 6 -3 7 1 4 9 -7 18 -14 21 -14 7z"/>
<path d="M10602 4280 c-7 -11 -8 -20 -3 -20 9 0 24 30 18 36 -1 2 -8 -6 -15
-16z"/>
<path d="M10720 4286 c7 -7 13 -7 20 0 6 6 3 10 -10 10 -13 0 -16 -4 -10 -10z"/>
<path d="M10766 4283 c-8 -20 9 -40 19 -22 6 8 4 10 -5 4 -9 -5 -10 -2 -5 14
8 25 0 29 -9 4z"/>
<path d="M2390 4285 c0 -5 5 -17 10 -25 5 -8 10 -10 10 -5 0 6 -5 17 -10 25
-5 8 -10 11 -10 5z"/>
<path d="M2480 4280 c8 -5 20 -10 25 -10 6 0 3 5 -5 10 -8 5 -19 10 -25 10 -5
0 -3 -5 5 -10z"/>
<path d="M2585 4277 c-14 -11 -15 -16 -5 -22 9 -6 11 -4 5 5 -5 9 -1 11 16 6
13 -3 18 -3 11 0 -6 3 -10 10 -6 15 7 13 1 11 -21 -4z"/>
<path d="M2655 4280 c3 -5 8 -10 11 -10 2 0 4 5 4 10 0 6 -5 10 -11 10 -5 0
-7 -4 -4 -10z"/>
<path d="M2860 4284 c0 -1 6 -7 14 -13 10 -9 15 -8 19 2 3 8 -3 13 -14 13 -11
0 -19 -1 -19 -2z"/>
<path d="M2934 4278 c-4 -6 -3 -8 4 -4 5 3 12 1 14 -6 3 -8 6 -9 11 -1 4 6 0
13 -8 17 -8 3 -17 0 -21 -6z"/>
<path d="M2993 4275 c0 -8 4 -12 9 -9 5 3 6 10 3 15 -9 13 -12 11 -12 -6z"/>
<path d="M3096 4282 c-3 -4 4 -9 15 -9 23 -2 25 3 4 10 -8 4 -16 3 -19 -1z"/>
<path d="M3150 4279 c0 -5 5 -7 10 -4 6 3 10 8 10 11 0 2 -4 4 -10 4 -5 0 -10
-5 -10 -11z"/>
<path d="M4730 4279 c0 -5 5 -7 10 -4 6 3 10 8 10 11 0 2 -4 4 -10 4 -5 0 -10
-5 -10 -11z"/>
<path d="M4880 4280 c-12 -7 -10 -9 8 -7 12 0 22 5 22 9 0 11 -12 10 -30 -2z"/>
<path d="M4947 4284 c-4 -4 -7 -12 -7 -18 0 -6 5 -4 10 4 9 13 11 13 21 0 9
-12 10 -12 7 -1 -5 17 -21 25 -31 15z"/>
<path d="M5079 4273 c-13 -17 -13 -17 6 -3 11 8 22 16 24 17 2 2 0 3 -6 3 -6
0 -17 -8 -24 -17z"/>
<path d="M5220 4279 c0 -5 5 -7 10 -4 6 3 10 8 10 11 0 2 -4 4 -10 4 -5 0 -10
-5 -10 -11z"/>
<path d="M5250 4287 c0 -3 15 -10 32 -16 18 -6 28 -7 23 -2 -12 10 -55 25 -55
18z"/>
<path d="M5370 4280 c0 -5 5 -10 10 -10 6 0 10 5 10 10 0 6 -4 10 -10 10 -5 0
-10 -4 -10 -10z"/>
<path d="M5480 4275 c-7 -9 -11 -17 -9 -20 3 -2 10 5 17 15 14 24 10 26 -8 5z"/>
<path d="M7900 4280 c-8 -5 -10 -10 -5 -10 6 0 17 5 25 10 8 5 11 10 5 10 -5
0 -17 -5 -25 -10z"/>
<path d="M7950 4280 c0 -5 5 -10 11 -10 5 0 7 5 4 10 -3 6 -8 10 -11 10 -2 0
-4 -4 -4 -10z"/>
<path d="M8111 4270 c22 -18 25 -18 37 -2 11 14 14 15 22 2 5 -8 20 -15 34
-16 14 0 23 3 21 7 -3 4 -13 6 -23 5 -9 -2 -23 4 -29 13 -12 15 -14 14 -27 -2
-12 -15 -15 -15 -26 -2 -7 8 -17 15 -22 15 -6 0 0 -9 13 -20z"/>
<path d="M8210 4287 c0 -3 15 -10 32 -16 18 -6 28 -7 23 -2 -12 10 -55 25 -55
18z"/>
<path d="M8410 4282 c0 -4 10 -9 22 -9 18 -2 20 0 8 7 -18 12 -30 13 -30 2z"/>
<path d="M8715 4280 c-3 -5 -1 -10 4 -10 6 0 11 5 11 10 0 6 -2 10 -4 10 -3 0
-8 -4 -11 -10z"/>
<path d="M10135 4280 c3 -5 8 -10 11 -10 2 0 4 5 4 10 0 6 -5 10 -11 10 -5 0
-7 -4 -4 -10z"/>
<path d="M10166 4278 c3 -5 10 -6 15 -3 13 9 11 12 -6 12 -8 0 -12 -4 -9 -9z"/>
<path d="M10365 4280 c-3 -6 1 -7 9 -4 18 7 21 14 7 14 -6 0 -13 -4 -16 -10z"/>
<path d="M10440 4280 c-13 -8 -12 -10 3 -10 9 0 17 5 17 10 0 12 -1 12 -20 0z"/>
<path d="M10479 4273 c-13 -16 -12 -17 4 -4 16 13 21 21 13 21 -2 0 -10 -8
-17 -17z"/>
<path d="M10638 4283 c7 -3 16 -2 19 1 4 3 -2 6 -13 5 -11 0 -14 -3 -6 -6z"/>
<path d="M10693 4269 c-2 -23 3 -25 10 -4 4 8 3 16 -1 19 -4 3 -9 -4 -9 -15z"/>
<path d="M10822 4282 c-8 -6 -2 -9 18 -9 20 0 26 3 18 9 -7 4 -15 8 -18 8 -3
0 -11 -4 -18 -8z"/>
<path d="M10916 4278 c3 -4 0 -8 -7 -8 -7 0 -10 -2 -7 -5 7 -7 38 5 38 14 0 4
-7 8 -15 8 -8 0 -12 -4 -9 -9z"/>
<path d="M1915 4271 c-6 -11 13 -26 22 -17 4 3 1 6 -6 6 -7 0 -9 5 -6 10 3 6
4 10 1 10 -3 0 -7 -4 -11 -9z"/>
<path d="M5575 4271 c-3 -5 0 -13 6 -17 8 -5 9 -3 4 6 -6 9 -1 10 16 5 19 -5
21 -4 9 4 -19 13 -27 14 -35 2z"/>
<path d="M7753 4265 c0 -7 6 -11 14 -8 7 3 13 6 13 8 0 2 -6 5 -13 8 -8 3 -14
-1 -14 -8z"/>
<path d="M7995 4270 c-3 -6 1 -7 9 -4 18 7 21 14 7 14 -6 0 -13 -4 -16 -10z"/>
<path d="M8310 4276 c0 -2 9 -6 20 -9 11 -3 18 -1 14 4 -5 9 -34 13 -34 5z"/>
<path d="M10995 4269 c-4 -6 -5 -12 -2 -15 2 -3 7 2 10 11 7 17 1 20 -8 4z"/>
<path d="M11030 4269 c-12 -8 -10 -9 9 -4 17 5 22 4 16 -5 -5 -9 -4 -11 4 -6
6 4 9 12 6 17 -8 12 -16 11 -35 -2z"/>
<path d="M2640 4260 c8 -5 20 -10 25 -10 6 0 3 5 -5 10 -8 5 -19 10 -25 10 -5
0 -3 -5 5 -10z"/>
<path d="M2700 4260 c-12 -7 -10 -9 7 -7 12 0 19 5 17 9 -6 10 -6 10 -24 -2z"/>
<path d="M5142 4265 c3 -3 16 -8 28 -10 12 -2 20 -1 16 2 -4 4 -16 8 -28 10
-12 2 -19 1 -16 -2z"/>
<path d="M5240 4260 c-12 -7 -10 -9 7 -7 12 0 19 5 17 9 -6 10 -6 10 -24 -2z"/>
<path d="M5335 4261 c-6 -11 13 -26 22 -17 4 3 1 6 -6 6 -7 0 -9 5 -6 10 3 6
4 10 1 10 -3 0 -7 -4 -11 -9z"/>
<path d="M5494 4258 c-4 -7 -4 -10 1 -6 4 4 14 0 22 -10 13 -15 13 -15 3 6
-12 25 -16 27 -26 10z"/>
<path d="M5550 4265 c0 -5 5 -17 10 -25 5 -8 10 -10 10 -5 0 6 -5 17 -10 25
-5 8 -10 11 -10 5z"/>
<path d="M5635 4260 c3 -5 8 -10 11 -10 2 0 4 5 4 10 0 6 -5 10 -11 10 -5 0
-7 -4 -4 -10z"/>
<path d="M5695 4260 c-3 -6 0 -13 9 -16 8 -3 12 -13 9 -22 -4 -15 -3 -15 6 -2
8 11 7 18 -4 26 -8 6 -12 14 -8 17 3 4 4 7 0 7 -3 0 -9 -5 -12 -10z"/>
<path d="M7859 4268 c-8 -27 -5 -36 9 -30 10 4 12 7 4 10 -7 2 -10 8 -6 13 3
5 3 9 0 9 -3 0 -6 -1 -7 -2z"/>
<path d="M8073 4254 c0 -9 4 -11 12 -4 7 5 14 9 16 7 2 -1 3 0 1 2 -7 11 -29
7 -29 -5z"/>
<path d="M10398 4263 c7 -3 16 -2 19 1 4 3 -2 6 -13 5 -11 0 -14 -3 -6 -6z"/>
<path d="M10518 4263 c7 -3 16 -2 19 1 4 3 -2 6 -13 5 -11 0 -14 -3 -6 -6z"/>
<path d="M11072 4249 c-8 -12 -9 -18 -4 -15 6 3 12 0 15 -6 2 -7 4 -1 4 15 0
15 0 27 -1 27 -1 0 -7 -9 -14 -21z"/>
<path d="M11174 4249 c1 -15 -4 -23 -12 -21 -8 1 -11 -2 -7 -8 6 -9 55 15 55
28 0 3 -3 2 -7 -1 -3 -4 -11 1 -18 10 -10 14 -12 13 -11 -8z"/>
<path d="M1955 4250 c-3 -6 1 -7 9 -4 18 7 21 14 7 14 -6 0 -13 -4 -16 -10z"/>
<path d="M2464 4244 c-18 -14 -18 -15 4 -4 12 6 22 13 22 15 0 8 -5 6 -26 -11z"/>
<path d="M5390 4256 c0 -2 7 -9 15 -16 9 -7 15 -8 15 -2 0 5 -7 12 -15 16 -8
3 -15 4 -15 2z"/>
<path d="M5446 4243 c-6 -14 -5 -15 5 -6 7 7 10 15 7 18 -3 3 -9 -2 -12 -12z"/>
<path d="M5786 4245 c-11 -8 -15 -15 -9 -15 6 0 16 7 23 15 16 19 11 19 -14 0z"/>
<path d="M7511 4251 c-7 -5 -12 -14 -10 -20 2 -6 10 -2 17 9 14 22 13 23 -7
11z"/>
<path d="M7573 4253 c-16 -6 -17 -29 -1 -39 7 -4 8 -3 4 5 -4 6 -2 18 4 26 13
16 12 16 -7 8z"/>
<path d="M7713 4238 c0 -13 1 -17 4 -10 3 6 10 9 16 5 7 -4 6 1 -2 10 -17 21
-17 21 -18 -5z"/>
<path d="M7910 4256 c0 -2 7 -9 15 -16 9 -7 15 -8 15 -2 0 5 -7 12 -15 16 -8
3 -15 4 -15 2z"/>
<path d="M10795 4250 c-3 -6 1 -7 9 -4 18 7 21 14 7 14 -6 0 -13 -4 -16 -10z"/>
<path d="M11117 4241 c-3 -13 -1 -18 9 -14 7 2 10 11 7 19 -7 19 -10 18 -16
-5z"/>
<path d="M11330 4249 c0 -5 -6 -7 -12 -4 -7 4 -5 0 4 -8 10 -8 14 -18 10 -22
-4 -5 -2 -5 5 -2 6 4 9 16 6 27 -6 21 -13 27 -13 9z"/>
<path d="M1990 4238 c0 -11 12 -10 30 2 12 7 10 9 -8 7 -12 0 -22 -5 -22 -9z"/>
<path d="M2036 4235 c-11 -8 -15 -15 -9 -15 6 0 16 7 23 15 16 19 11 19 -14 0z"/>
<path d="M2090 4240 c0 -3 14 -6 30 -6 17 0 30 3 30 6 0 4 -13 7 -30 7 -16 0
-30 -3 -30 -7z"/>
<path d="M2166 4242 c-3 -5 1 -9 9 -9 8 0 15 4 15 9 0 4 -4 8 -9 8 -6 0 -12
-4 -15 -8z"/>
<path d="M2250 4240 c0 -6 4 -9 9 -6 5 4 12 1 14 -4 3 -6 4 -5 3 2 -3 15 -26
23 -26 8z"/>
<path d="M2310 4240 c0 -5 5 -10 10 -10 6 0 10 5 10 10 0 6 -4 10 -10 10 -5 0
-10 -4 -10 -10z"/>
<path d="M2364 4242 c4 -3 14 -7 22 -8 9 -1 13 0 10 4 -4 3 -14 7 -22 8 -9 1
-13 0 -10 -4z"/>
<path d="M2515 4240 c-3 -6 1 -7 9 -4 18 7 21 14 7 14 -6 0 -13 -4 -16 -10z"/>
<path d="M5610 4245 c0 -2 10 -10 23 -16 20 -11 21 -11 8 4 -13 16 -31 23 -31
12z"/>
<path d="M5666 4237 c3 -10 9 -15 12 -12 3 3 0 11 -7 18 -10 9 -11 8 -5 -6z"/>
<path d="M5860 4240 c-9 -6 -10 -10 -3 -10 6 0 15 5 18 10 8 12 4 12 -15 0z"/>
<path d="M5940 4240 c-8 -5 -10 -10 -5 -10 6 0 17 5 25 10 8 5 11 10 5 10 -5
0 -17 -5 -25 -10z"/>
<path d="M7415 4240 c3 -5 8 -10 11 -10 2 0 4 5 4 10 0 6 -5 10 -11 10 -5 0
-7 -4 -4 -10z"/>
<path d="M7640 4240 c-9 -6 -10 -10 -3 -10 6 0 15 5 18 10 8 12 4 12 -15 0z"/>
<path d="M7678 4243 c7 -3 16 -2 19 1 4 3 -2 6 -13 5 -11 0 -14 -3 -6 -6z"/>
<path d="M7759 4233 c-13 -17 -13 -17 6 -3 11 8 22 16 24 17 2 2 0 3 -6 3 -6
0 -17 -8 -24 -17z"/>
<path d="M11002 4237 c-8 -10 -6 -13 7 -13 10 0 18 6 18 13 0 7 -4 13 -7 13
-4 0 -12 -6 -18 -13z"/>
<path d="M11250 4244 c0 -2 9 -8 20 -14 15 -8 18 -8 14 3 -4 11 -34 21 -34 11z"/>
<path d="M11396 4237 c3 -10 9 -15 12 -12 3 3 0 11 -7 18 -10 9 -11 8 -5 -6z"/>
<path d="M7335 4231 c-3 -5 0 -13 6 -17 7 -4 9 -3 5 4 -3 5 0 13 6 15 9 4 10
6 1 6 -6 1 -14 -3 -18 -8z"/>
<path d="M1953 4215 c0 -8 4 -12 9 -9 5 3 6 10 3 15 -9 13 -12 11 -12 -6z"/>
<path d="M2054 4218 c-4 -6 -3 -8 4 -4 5 3 12 1 14 -6 3 -8 6 -9 11 -1 4 6 0
13 -8 17 -8 3 -17 0 -21 -6z"/>
<path d="M2195 4220 c-3 -6 1 -7 9 -4 18 7 21 14 7 14 -6 0 -13 -4 -16 -10z"/>
<path d="M5736 4222 c-3 -5 1 -9 9 -9 8 0 12 4 9 9 -3 4 -7 8 -9 8 -2 0 -6 -4
-9 -8z"/>
<path d="M5795 4221 c-3 -5 0 -13 6 -17 7 -4 9 -3 5 4 -3 5 0 13 6 15 9 4 10
6 1 6 -6 1 -14 -3 -18 -8z"/>
<path d="M5885 4219 c-4 -6 -4 -13 -1 -16 3 -4 6 -1 6 6 0 7 5 9 12 5 7 -4 8
-3 4 4 -9 15 -13 15 -21 1z"/>
<path d="M5961 4212 c-7 -14 -6 -19 4 -19 7 0 11 7 7 15 -4 11 -1 13 8 7 9 -5
11 -4 6 3 -10 16 -14 15 -25 -6z"/>
<path d="M6045 4220 c-3 -5 -1 -18 5 -27 9 -15 10 -14 4 6 -4 17 -3 21 6 16 9
-5 11 -4 6 3 -9 15 -13 15 -21 2z"/>
<path d="M7311 4225 c1 -19 18 -51 18 -35 0 8 -4 22 -9 30 -5 8 -9 11 -9 5z"/>
<path d="M7390 4220 c0 -5 5 -10 10 -10 6 0 10 5 10 10 0 6 -4 10 -10 10 -5 0
-10 -4 -10 -10z"/>
<path d="M7516 4213 c-6 -14 -5 -15 5 -6 7 7 10 15 7 18 -3 3 -9 -2 -12 -12z"/>
<path d="M7600 4220 c-9 -6 -10 -10 -3 -10 6 0 15 5 18 10 8 12 4 12 -15 0z"/>
<path d="M11230 4220 c0 -5 5 -10 10 -10 6 0 10 5 10 10 0 6 -4 10 -10 10 -5
0 -10 -4 -10 -10z"/>
<path d="M11356 4215 c-9 -26 -7 -32 5 -12 6 10 9 21 6 23 -2 3 -7 -2 -11 -11z"/>
<path d="M7160 4206 c7 -7 13 -7 20 0 6 6 3 10 -10 10 -13 0 -16 -4 -10 -10z"/>
<path d="M7218 4208 c5 -5 16 -8 23 -6 8 3 3 7 -10 11 -17 4 -21 3 -13 -5z"/>
<path d="M7475 4210 c-4 -6 -11 -7 -17 -4 -7 4 -8 2 -4 -5 6 -9 11 -9 22 0 14
11 18 19 10 19 -3 0 -8 -5 -11 -10z"/>
<path d="M6110 4200 c0 -5 5 -10 11 -10 5 0 7 5 4 10 -3 6 -8 10 -11 10 -2 0
-4 -4 -4 -10z"/>
<path d="M6147 4204 c-4 -4 -7 -12 -7 -18 0 -6 5 -4 10 4 9 13 11 13 21 0 9
-12 10 -12 7 -1 -5 17 -21 25 -31 15z"/>
<path d="M6199 4208 c-5 -18 -6 -38 -1 -34 7 8 12 36 6 36 -2 0 -4 -1 -5 -2z"/>
<path d="M6250 4200 c0 -5 5 -10 11 -10 5 0 7 5 4 10 -3 6 -8 10 -11 10 -2 0
-4 -4 -4 -10z"/>
<path d="M7090 4200 c0 -5 5 -10 11 -10 5 0 7 5 4 10 -3 6 -8 10 -11 10 -2 0
-4 -4 -4 -10z"/>
<path d="M7280 4195 c-7 -9 -8 -15 -2 -15 5 0 12 7 16 15 3 8 4 15 2 15 -2 0
-9 -7 -16 -15z"/>
<path d="M5990 4196 c0 -2 9 -6 20 -9 11 -3 18 -1 14 4 -5 9 -34 13 -34 5z"/>
<path d="M6070 4186 c0 -2 9 -6 20 -9 11 -3 18 -1 14 4 -5 9 -34 13 -34 5z"/>
<path d="M6220 4186 c0 -2 7 -7 16 -10 8 -3 12 -2 9 4 -6 10 -25 14 -25 6z"/>
<path d="M7030 4180 c0 -4 7 -7 15 -6 23 3 26 12 5 13 -11 1 -20 -2 -20 -7z"/>
<path d="M7134 4179 c-4 -7 -3 -9 4 -5 5 3 13 0 15 -6 4 -9 6 -10 6 -1 1 17
-16 25 -25 12z"/>
<path d="M7190 4180 c0 -5 5 -10 10 -10 6 0 10 5 10 10 0 6 -4 10 -10 10 -5 0
-10 -4 -10 -10z"/>
<path d="M7226 4178 c3 -4 11 -5 19 -1 21 7 19 12 -4 10 -11 0 -18 -5 -15 -9z"/>
<path d="M6260 4176 c0 -2 7 -7 16 -10 8 -3 12 -2 9 4 -6 10 -25 14 -25 6z"/>
<path d="M7066 4165 c-18 -13 -18 -14 2 -12 11 0 19 4 16 8 -2 4 2 10 8 12 7
3 9 6 3 6 -5 0 -18 -6 -29 -14z"/>
<path d="M6215 4160 c3 -5 8 -10 11 -10 2 0 4 5 4 10 0 6 -5 10 -11 10 -5 0
-7 -4 -4 -10z"/>
<path d="M6396 4162 c-3 -5 1 -9 9 -9 8 0 12 4 9 9 -3 4 -7 8 -9 8 -2 0 -6 -4
-9 -8z"/>
<path d="M6877 4163 c-10 -9 -9 -23 1 -23 5 0 9 7 9 15 0 17 -1 18 -10 8z"/>
<path d="M6984 4158 c-4 -6 -3 -8 4 -4 5 3 13 0 15 -6 3 -8 6 -6 6 5 1 19 -14
23 -25 5z"/>
<path d="M6510 4150 c-9 -6 -10 -10 -3 -10 6 0 15 5 18 10 8 12 4 12 -15 0z"/>
<path d="M6568 4153 c6 -2 9 -10 6 -15 -4 -7 -2 -8 5 -4 13 9 5 26 -12 25 -9
0 -8 -2 1 -6z"/>
<path d="M6430 4143 c0 -6 8 -17 18 -24 16 -13 16 -13 2 6 -8 11 -16 22 -17
24 -2 2 -3 0 -3 -6z"/>
<path d="M6630 4140 c0 -5 5 -10 10 -10 6 0 10 5 10 10 0 6 -4 10 -10 10 -5 0
-10 -4 -10 -10z"/>
<path d="M6756 4134 c-3 -9 -2 -22 2 -31 6 -10 9 -5 9 16 0 35 -2 38 -11 15z"/>
<path d="M6956 4133 c-6 -14 -5 -15 5 -6 7 7 10 15 7 18 -3 3 -9 -2 -12 -12z"/>
<path d="M6410 4131 c0 -6 4 -13 10 -16 6 -3 7 1 4 9 -7 18 -14 21 -14 7z"/>
<path d="M6546 4123 c-6 -14 -5 -15 5 -6 7 7 10 15 7 18 -3 3 -9 -2 -12 -12z"/>
<path d="M6612 4116 c1 -14 5 -23 9 -20 7 4 0 44 -7 44 -2 0 -3 -11 -2 -24z"/>
<path d="M6658 4122 c-3 -11 0 -19 7 -19 7 0 10 8 7 19 -2 10 -6 18 -7 18 -1
0 -5 -8 -7 -18z"/>
<path d="M6837 4130 c7 -8 20 -15 29 -16 9 -1 13 1 9 4 -4 4 -10 7 -13 7 -4 0
-14 4 -22 9 -12 7 -13 6 -3 -4z"/>
<path d="M6510 4121 c0 -6 4 -13 10 -16 6 -3 7 1 4 9 -7 18 -14 21 -14 7z"/>
<path d="M6786 4119 c3 -5 9 -7 14 -4 4 3 11 0 13 -5 3 -6 4 -5 3 1 -1 7 -10
13 -19 15 -9 1 -15 -2 -11 -7z"/>
<path d="M6890 4119 c0 -5 5 -7 10 -4 6 3 10 8 10 11 0 2 -4 4 -10 4 -5 0 -10
-5 -10 -11z"/>
<path d="M6576 4107 c3 -10 9 -15 12 -12 3 3 0 11 -7 18 -10 9 -11 8 -5 -6z"/>
<path d="M6696 4111 c-3 -4 6 -8 20 -9 13 -1 24 0 24 2 0 7 -40 14 -44 7z"/>
</g>
</svg>
