<?xml version="1.0" standalone="no"?>
<!DOCTYPE svg PUBLIC "-//W3C//DTD SVG 20010904//EN"
 "http://www.w3.org/TR/2001/REC-SVG-20010904/DTD/svg10.dtd">
<svg version="1.0" xmlns="http://www.w3.org/2000/svg"
 width="553.000000pt" height="553.000000pt" viewBox="0 0 553.000000 553.000000"
 preserveAspectRatio="xMidYMid meet">
<metadata>
Created by potrace 1.11, written by Peter Selinger 2001-2013
</metadata>
<g transform="translate(0.000000,553.000000) scale(0.100000,-0.100000)"
fill="#000000" stroke="none">
<path d="M2200 5173 c-387 -38 -704 -211 -821 -448 -21 -44 -44 -104 -49 -134
-6 -31 -10 -251 -10 -512 l0 -459 95 0 95 0 0 478 0 477 24 50 c50 107 134
183 281 256 55 27 145 61 200 76 l100 28 1068 3 1067 3 0 -656 0 -655 90 0 90
0 0 698 c0 383 3 721 6 750 l7 52 -1104 -2 c-607 0 -1120 -3 -1139 -5z"/>
<path d="M1940 3464 l0 -796 348 5 c311 4 356 7 430 26 172 44 256 116 298
257 23 78 24 229 1 305 -34 113 -116 201 -219 234 -29 9 -60 19 -68 22 -9 3 6
11 34 20 60 18 127 62 157 104 58 81 75 236 39 350 -46 145 -160 227 -360 259
-36 5 -199 10 -362 10 l-298 0 0 -796z m575 536 c103 -17 148 -69 148 -174 0
-87 -22 -129 -81 -158 -42 -20 -62 -22 -192 -23 l-145 0 -3 170 c-1 93 0 175
2 182 7 16 181 18 271 3z m90 -637 c78 -41 107 -98 107 -212 -1 -86 -12 -124
-50 -164 -42 -44 -106 -57 -274 -57 l-148 0 0 231 0 231 163 -4 c141 -3 167
-6 202 -25z"/>
<path d="M2941 4204 c42 -41 70 -79 92 -126 l32 -68 80 -1 c177 -1 238 -17
279 -73 30 -40 30 -182 0 -223 -38 -52 -80 -65 -242 -70 -107 -4 -149 -9 -155
-19 -4 -7 -22 -32 -40 -56 l-32 -42 37 -34 c21 -19 47 -49 59 -68 l21 -34 108
0 c239 0 309 -47 318 -215 10 -188 -55 -245 -278 -245 l-106 0 -29 -67 c-21
-50 -46 -85 -93 -132 l-65 -64 244 6 c339 8 448 35 550 137 67 67 91 136 97
277 5 136 -16 220 -75 297 -42 54 -134 112 -195 122 -38 7 -53 24 -20 24 30 0
116 46 150 80 72 72 103 189 84 315 -26 165 -116 260 -297 311 -47 13 -117 18
-323 21 l-263 5 62 -58z"/>
<path d="M1245 3439 c-237 -84 -328 -360 -187 -569 42 -62 127 -126 190 -143
l42 -11 0 -856 0 -855 -42 -13 c-24 -7 -67 -29 -96 -49 -135 -92 -193 -264
-142 -424 26 -84 77 -151 150 -199 194 -124 451 -51 548 158 24 50 27 70 27
157 0 93 -2 105 -33 167 -34 70 -99 137 -159 166 l-33 16 0 206 0 207 31 61
c58 117 216 235 389 291 175 56 140 54 925 61 629 6 742 9 819 24 344 66 589
222 699 445 l42 84 3 177 4 177 54 22 c77 33 147 99 186 179 31 62 33 74 33
167 0 93 -2 105 -33 167 -82 167 -275 248 -451 188 -111 -37 -178 -98 -228
-207 -87 -190 13 -429 210 -501 l49 -17 -4 -155 c-3 -145 -5 -158 -30 -205
-77 -148 -242 -257 -487 -323 l-96 -26 -735 -7 c-768 -7 -786 -8 -946 -54
-177 -50 -349 -140 -428 -224 -17 -17 -33 -31 -38 -31 -4 0 -8 231 -8 514 l0
515 54 24 c77 35 140 98 179 176 30 61 32 73 32 166 0 88 -3 107 -27 157 -34
73 -107 146 -182 183 -80 39 -194 45 -281 14z m230 -197 c76 -52 104 -153 66
-237 -85 -188 -365 -126 -365 80 0 153 173 244 299 157z m2960 0 c103 -71 111
-224 16 -305 -125 -105 -315 -16 -315 148 0 153 173 244 299 157z m-2960
-2449 c99 -69 112 -209 26 -294 -121 -121 -324 -36 -325 136 -1 154 173 245
299 158z"/>
<path d="M4240 1535 l0 -375 -870 0 -870 0 0 160 0 160 -320 0 -320 0 0 -162
0 -161 -95 6 c-109 7 -99 17 -110 -105 -7 -79 -10 -76 120 -80 l80 -3 5 -303
5 -302 160 160 160 160 157 -157 158 -158 0 298 0 297 960 0 960 0 0 470 0
470 -90 0 -90 0 0 -375z"/>
</g>
</svg>
