<svg xmlns="http://www.w3.org/2000/svg" width="24" height="24">
  <path d="M15 8H9c-.6 0-1 .4-1 1v6c0 .6.4 1 1 1h6c.6 0 1-.4 1-1V9c0-.6-.4-1-1-1zm-1 6h-4v-4h4v4z"/>
  <path d="M23 13h-2v-3h2c.6 0 1-.4 1-1s-.4-1-1-1h-2V6c0-1.7-1.3-3-3-3h-2V1c0-.6-.4-1-1-1s-1 .4-1 1v2h-4V1c0-.6-.4-1-1-1S8 .4 8 1v2H6C4.3 3 3 4.3 3 6v2H1c-.6 0-1 .4-1 1s.4 1 1 1h2v3H1c-.6 0-1 .4-1 1s.4 1 1 1h2v3c0 1.7 1.3 3 3 3h2v2c0 .6.4 1 1 1s1-.4 1-1v-2h4v2c0 .6.4 1 1 1s1-.4 1-1v-2h2c1.7 0 3-1.3 3-3v-3h2c.6 0 1-.4 1-1s-.4-1-1-1zm-4 5c0 .6-.4 1-1 1H6c-.6 0-1-.4-1-1V6c0-.6.4-1 1-1h12c.6 0 1 .4 1 1v12z"/>
</svg>
