<svg xmlns="http://www.w3.org/2000/svg" width="24" height="24">
  <path d="M13 14H5c-2.8 0-5 2.2-5 5v2c0 .6.4 1 1 1s1-.4 1-1v-2c0-1.7 1.3-3 3-3h8c1.7 0 3 1.3 3 3v2c0 .6.4 1 1 1s1-.4 1-1v-2c0-2.8-2.2-5-5-5zM9 12c2.8 0 5-2.2 5-5s-2.2-5-5-5-5 2.2-5 5 2.2 5 5 5zm0-8c1.7 0 3 1.3 3 3s-1.3 3-3 3-3-1.3-3-3 1.3-3 3-3zM20.2 14.2c-.5-.1-1.1.2-1.2.7s.2 1.1.7 1.2c1.3.3 2.2 1.5 2.2 2.9v2c0 .6.4 1 1 1s1-.4 1-1v-2c.1-2.3-1.4-4.3-3.7-4.8zM16.2 2.2c-.5-.2-1 .1-1.2.7-.1.5.2 1.1.7 1.2 1.6.4 2.6 2 2.2 3.7-.3 1.1-1.1 1.9-2.2 2.2-.5.1-.9.7-.7 1.2.1.5.5.8 1 .8h.2c1.8-.5 3.2-1.8 3.6-3.6.7-2.8-.9-5.6-3.6-6.2z"/>
</svg>
